<?xml version="1.0" encoding="UTF-8"?>
<svg width="80px" height="40px" viewBox="0 0 80 40" version="1.1" xmlns="http://www.w3.org/2000/svg" xmlns:xlink="http://www.w3.org/1999/xlink">
    <title>127821EC-AACA-4F5A-B3DE-A070687BE0F2</title>
    <defs>
        <polygon id="path-1" points="0.0471312581 0.0112566372 24.9775753 0.0112566372 24.9775753 23.9876602 0.0471312581 23.9876602"></polygon>
    </defs>
    <g id="Page-1" stroke="none" stroke-width="1" fill="none" fill-rule="evenodd">
        <g id="1-Home" transform="translate(-70.000000, -50.000000)">
            <g id="Header">
                <g id="Group-10" transform="translate(70.000000, 50.000000)">
                    <path d="M1.80741744,12.0615687 C1.80741744,22.5439852 12.3800413,21.7325923 12.3800413,21.7325923 C21.1534865,21.7325923 23.1733317,14.750248 23.1733317,13.7742032 L23.1733317,2 L25.0039069,2 L25.0039069,24 L23.1733317,24 L23.1733317,18.9400784 C23.1733317,18.9400784 19.0663947,23.625348 12.5020648,23.625348 C3.58945043,23.625348 0,18.1140639 0,13.3535673 L0,2 L1.80741744,2 L1.80741744,12.0615687 Z" id="Fill-1" fill="#DA0081"></path>
                    <path d="M50.2006927,13.9386432 C50.2006927,3.45601479 39.6281974,4.26761961 39.6281974,4.26761961 C30.8544514,4.26761961 28.8345882,11.2499639 28.8345882,12.2260087 L28.8345882,24 L27.0042194,24 L27.0042194,2 L28.8345882,2 L28.8345882,7.0601335 C28.8345882,7.0601335 32.9417844,2.37486395 39.5061728,2.37486395 C48.4186439,2.37486395 52.0081263,7.88614801 52.0081263,12.6464327 L52.0081263,24 L50.2006927,24 L50.2006927,13.9386432 Z" id="Fill-3" fill="#DA0081"></path>
                    <g id="Group-7" transform="translate(54.008439, 0.000000)">
                        <mask id="mask-2" fill="white">
                            <use xlink:href="#path-1"></use>
                        </mask>
                        <g id="Clip-6"></g>
                        <path d="M0.0471312581,12.7210407 C0.436351366,19.0056425 5.86706717,23.9876602 12.5123533,23.9876602 C19.1576394,23.9876602 24.5883552,19.0056425 24.9775753,12.7210407 L23.0226238,12.7210407 C22.6365016,17.9710938 18.0802587,22.116085 12.5123533,22.116085 C6.9444479,22.116085 2.38820502,17.9710938 2.00208274,12.7210407 L0.0471312581,12.7210407 Z M24.9775753,11.2778549 C24.5883552,4.9932531 19.1576394,0.0112353982 12.5123533,0.0112353982 C5.86706717,0.0112353982 0.436351366,4.9932531 0.0471312581,11.2778549 L2.00208274,11.2778549 C2.38798374,6.02758938 6.9444479,1.88281062 12.5123533,1.88281062 C18.0802587,1.88281062 22.6365016,6.02758938 23.0226238,11.2778549 L24.9775753,11.2778549 Z" id="Fill-5" fill="#DA0081" mask="url(#mask-2)"></path>
                    </g>
                    <path d="M74.4075642,31.2168601 C73.6247156,31.2168601 72.9601344,31.4419349 72.4140361,31.8922933 C71.8679378,32.3424429 71.5949963,32.8889335 71.5949963,33.5321834 C71.5949963,33.9854676 71.7416996,34.3973732 72.0353217,34.7679002 C72.3289438,35.1384272 72.969613,35.5139697 73.9575447,35.8941099 C74.9454764,36.2742501 75.5514625,36.5883516 75.7757182,36.8362055 C76.0001894,37.0842684 76.1122096,37.3551104 76.1122096,37.6489406 C76.1122096,38.0773559 75.9403017,38.4294923 75.5962705,38.704932 C75.2520239,38.9803717 74.8116985,39.1180915 74.2750788,39.1180915 C73.4795202,39.1180915 72.5672021,38.8608334 71.5381245,38.3463171 L71.5381245,39.2282256 C72.4030495,39.7427419 73.2742217,40 74.1518566,40 C74.9601252,40 75.638709,39.7749252 76.1880386,39.3247757 C76.7373683,38.8746262 77.0120331,38.3218661 77.0120331,37.6664952 C77.0120331,37.1764299 76.8605905,36.7325499 76.5574898,36.3342282 C76.254389,35.9363245 75.6091959,35.5522136 74.6221259,35.1821046 C73.6352713,34.8122046 73.0320858,34.5066714 72.8134311,34.2655049 C72.5945609,34.0243385 72.4851258,33.7599749 72.4851258,33.4728322 C72.4851258,33.0697039 72.6650043,32.7307334 73.0249768,32.4561296 C73.3847339,32.1813169 73.8267827,32.0438061 74.3509079,32.0438061 C75.0579275,32.0438061 75.8532707,32.3317847 76.7373683,32.9073241 L76.7373683,31.933463 C75.8976479,31.4557277 75.1210465,31.2168601 74.4075642,31.2168601 L74.4075642,31.2168601 Z M56.0334561,32.7466161 C56.5543499,32.3148571 57.1715379,32.0989776 57.8850202,32.0989776 C59.3938457,32.0989776 60.3126265,32.9227888 60.6409318,34.5704112 L54.9964079,34.5704112 C55.1670232,33.7863068 55.5125623,33.1783751 56.0334561,32.7466161 L56.0334561,32.7466161 Z M60.6219746,32.3148571 C59.876825,31.5829984 58.9647223,31.2168601 57.8850202,31.2168601 C56.7357364,31.2168601 55.7824879,31.6227052 55.0248438,32.4341864 C54.2671997,33.2458766 53.8884853,34.2703115 53.8884853,35.5074912 C53.8884853,36.8119635 54.2988669,37.8869723 55.1196301,38.7320998 C55.9403932,39.5774363 56.9789494,40 58.2355141,40 C59.4729061,40 60.5903073,39.6265473 61.5879331,38.8792239 L61.5879331,37.8593866 C60.5334355,38.6986625 59.4539489,39.1180915 58.3490423,39.1180915 C57.402041,39.1180915 56.5812778,38.7904061 55.8867528,38.1350352 C55.1922277,37.4796643 54.8449652,36.6803042 54.8449652,35.7371636 C54.8449652,35.5900395 54.8544439,35.4431245 54.8734011,35.2962094 L61.7395912,35.2962094 C61.7395912,34.0406392 61.3669087,33.0467158 60.6219746,32.3148571 L60.6219746,32.3148571 Z M37.0486227,38.1212423 C36.3887808,37.4566762 36.0589676,36.6222069 36.0589676,35.6176253 C36.0589676,34.6069832 36.3887808,33.7679163 37.0486227,33.1004244 C37.7082491,32.4327235 38.5307357,32.0989776 39.5156515,32.0989776 C40.4878573,32.0989776 41.3038811,32.4358583 41.963723,33.1096197 C42.6233494,33.783381 42.9533781,34.6195222 42.9533781,35.6176253 C42.9533781,36.6222069 42.6250728,37.4566762 41.9684623,38.1212423 C41.3118518,38.7858084 40.49432,39.1180915 39.5156515,39.1180915 C38.5307357,39.1180915 37.7082491,38.7858084 37.0486227,38.1212423 L37.0486227,38.1212423 Z M36.3478504,32.4755651 C35.4984359,33.314841 35.0740518,34.3622641 35.0740518,35.6176253 C35.0740518,36.867135 35.4984359,37.9099605 36.3478504,38.7458927 C37.196834,39.5820339 38.2528395,40 39.5156515,40 C40.778248,40 41.8312376,39.5820339 42.6739739,38.7458927 C43.5169257,37.9099605 43.9382939,36.867135 43.9382939,35.6176253 C43.9382939,34.3622641 43.5169257,33.314841 42.6739739,32.4755651 C41.8312376,31.6364981 40.778248,31.2168601 39.5156515,31.2168601 C38.2528395,31.2168601 37.196834,31.6364981 36.3478504,32.4755651 L36.3478504,32.4755651 Z M17.6137698,27 L17.6137698,39.8346944 L18.5418138,39.8346944 L18.5418138,33.9087709 C19.3121679,32.7023117 20.2621851,32.0989776 21.3925116,32.0989776 C22.9709189,32.0989776 23.7602302,33.0728386 23.7602302,35.0205607 L23.7602302,39.8346944 L24.6882742,39.8346944 L24.6882742,34.6621548 C24.6882742,33.5904897 24.3946521,32.7482879 23.807408,32.1357586 C23.2203792,31.5232293 22.4342992,31.2168601 21.4493834,31.2168601 C20.2621851,31.2168601 19.3057052,31.7620969 18.5797283,32.8523615 L18.5418138,32.8523615 L18.5418138,27 L17.6137698,27 Z M4.86996767,31.2168601 C4.08690361,31.2168601 3.42232242,31.4419349 2.87643952,31.8922933 C2.33012577,32.3424429 2.05718433,32.8889335 2.05718433,33.5321834 C2.05718433,33.9854676 2.20388766,34.3973732 2.49750976,34.7679002 C2.79113185,35.1384272 3.43180104,35.5139697 4.41973276,35.8941099 C5.40766447,36.2742501 6.0136505,36.5883516 6.23812168,36.8362055 C6.46237744,37.0842684 6.57461303,37.3551104 6.57461303,37.6489406 C6.57461303,38.0773559 6.40248974,38.4294923 6.05845857,38.704932 C5.71421197,38.9803717 5.27388654,39.1180915 4.73726685,39.1180915 C3.94170823,39.1180915 3.02939013,38.8608334 2.00031255,38.3463171 L2.00031255,39.2282256 C2.8652375,39.7427419 3.73662516,40 4.61426009,40 C5.42231327,40 6.1011124,39.7749252 6.65022665,39.3247757 C7.19955632,38.8746262 7.47422115,38.3218661 7.47422115,37.6664952 C7.47422115,37.1764299 7.3227785,36.7325499 7.01967778,36.3342282 C6.71657706,35.9363245 6.07138397,35.5522136 5.08452937,35.1821046 C4.09745935,34.8122046 3.49448925,34.5066714 3.27561908,34.2655049 C3.0567489,34.0243385 2.94731382,33.7599749 2.94731382,33.4728322 C2.94731382,33.0697039 3.12740778,32.7307334 3.48716486,32.4561296 C3.84713736,32.1813169 4.28897076,32.0438061 4.81309589,32.0438061 C5.52011549,32.0438061 6.31567411,32.3317847 7.19955632,32.9073241 L7.19955632,31.933463 C6.3598359,31.4557277 5.58323455,31.2168601 4.86996767,31.2168601 L4.86996767,31.2168601 Z" id="Fill-8" fill="#EB008B"></path>
                </g>
            </g>
        </g>
    </g>
</svg>